<svg width="309" height="11" viewBox="0 0 309 11" fill="none" xmlns="http://www.w3.org/2000/svg">
<path d="M5.256 8.112C5.14933 8.112 5.064 8.10133 5 8.08C4.65867 7.99467 4.41333 7.86667 4.264 7.696C4.136 7.504 4.05067 7.35467 4.008 7.248C3.85867 6.77867 3.912 6.29867 4.168 5.808C4.424 5.296 4.75467 4.76267 5.16 4.208C5.288 4.03733 5.40533 3.856 5.512 3.664C5.64 3.45067 5.74667 3.26933 5.832 3.12C5.85333 3.09867 5.88533 3.056 5.928 2.992C5.8 3.03467 5.64 3.09867 5.448 3.184C5.27733 3.26933 5.07467 3.39733 4.84 3.568C4.456 3.80267 4.05067 4.112 3.624 4.496C3.19733 4.85867 2.76 5.24267 2.312 5.648C2.20533 5.73333 2.088 5.82933 1.96 5.936C1.85333 6.04267 1.74667 6.14933 1.64 6.256C1.448 6.42667 1.224 6.512 0.968 6.512C0.690667 6.49067 0.466667 6.37333 0.296 6.16C0.104 5.968 0.0186666 5.744 0.04 5.488C0.0613333 5.21067 0.168 4.98667 0.36 4.816C0.466667 4.70933 0.584 4.60267 0.712 4.496C0.818667 4.38933 0.925333 4.29333 1.032 4.208C1.71467 3.58933 2.38667 3.024 3.048 2.512C3.70933 1.97867 4.36 1.57333 5 1.296C5.64 1.01867 6.25867 0.965333 6.856 1.136C7.21867 1.22133 7.47467 1.37067 7.624 1.584C7.79467 1.776 7.89067 1.94667 7.912 2.096C8.104 2.56533 8.06133 3.06667 7.784 3.6C7.50667 4.112 7.15467 4.67733 6.728 5.296C6.68533 5.33867 6.632 5.41333 6.568 5.52C6.52533 5.60533 6.472 5.69067 6.408 5.776C6.728 5.648 7.144 5.488 7.656 5.296C8.168 5.104 8.78667 4.86933 9.512 4.592C9.78933 4.50667 10.0453 4.528 10.28 4.656C10.5147 4.76267 10.6747 4.944 10.76 5.2C10.8667 5.43467 10.856 5.68 10.728 5.936C10.6213 6.17067 10.4507 6.34133 10.216 6.448C9.53333 6.68267 8.91467 6.896 8.36 7.088C7.80533 7.28 7.336 7.45067 6.952 7.6C6.73867 7.68533 6.54667 7.76 6.376 7.824C6.22667 7.86667 6.088 7.90933 5.96 7.952C5.81067 7.99467 5.68267 8.03733 5.576 8.08C5.46933 8.10133 5.36267 8.112 5.256 8.112ZM12.3725 10.896C12.2232 10.896 12.0738 10.8747 11.9245 10.832C11.7752 10.8107 11.6258 10.7893 11.4765 10.768C11.0925 10.6613 10.8258 10.4373 10.6765 10.096C10.4845 9.66933 10.4845 9.15733 10.6765 8.56C10.8898 7.94133 11.2312 7.152 11.7005 6.192C11.7858 6.02133 11.8712 5.82933 11.9565 5.616C12.0632 5.40267 12.1592 5.2 12.2445 5.008C11.9672 5.11467 11.6685 5.296 11.3485 5.552C11.0498 5.78667 10.7405 6.032 10.4205 6.288C10.2072 6.43733 9.9725 6.50133 9.7165 6.48C9.43917 6.43733 9.21517 6.32 9.0445 6.128C8.89517 5.91467 8.84183 5.68 8.8845 5.424C8.90583 5.168 9.0125 4.944 9.2045 4.752C9.50317 4.53867 9.8125 4.304 10.1325 4.048C10.4738 3.792 10.8152 3.57867 11.1565 3.408C12.0312 2.96 12.8312 2.84267 13.5565 3.056C13.8978 3.12 14.1538 3.33333 14.3245 3.696C14.4952 4.03733 14.4845 4.464 14.2925 4.976C14.1218 5.488 13.8232 6.18133 13.3965 7.056C13.2898 7.312 13.1725 7.568 13.0445 7.824C12.9378 8.08 12.8312 8.32533 12.7245 8.56C12.7032 8.64533 12.6712 8.72 12.6285 8.784C12.6072 8.848 12.5858 8.912 12.5645 8.976C13.0125 8.912 13.6632 8.688 14.5165 8.304C15.3912 7.89867 16.5645 7.10933 18.0365 5.936C18.8258 5.31733 19.5405 4.72 20.1805 4.144C20.8205 3.54667 21.3325 3.056 21.7165 2.672C22.1005 2.288 22.2925 2.096 22.2925 2.096C22.5485 1.79733 22.8578 1.70133 23.2205 1.808C23.3912 1.82933 23.5298 1.904 23.6365 2.032C23.7432 2.13867 23.8285 2.24533 23.8925 2.352C24.0418 2.65067 24.0525 3.00267 23.9245 3.408C23.8178 3.792 23.5832 4.42133 23.2205 5.296C23.0925 5.57333 22.9645 5.85067 22.8365 6.128C22.7298 6.40533 22.6232 6.66133 22.5165 6.896C22.4952 6.98133 22.4738 7.056 22.4525 7.12C22.4525 7.16267 22.4418 7.20533 22.4205 7.248C22.8258 7.184 23.2525 7.01333 23.7005 6.736C24.1698 6.43733 24.6178 6.10667 25.0445 5.744C25.4925 5.38133 25.8658 5.072 26.1645 4.816C26.3778 4.624 26.6125 4.53867 26.8685 4.56C27.1245 4.58133 27.3485 4.688 27.5405 4.88C27.7112 5.09333 27.7858 5.328 27.7645 5.584C27.7645 5.84 27.6578 6.064 27.4445 6.256C26.7832 6.832 26.1005 7.376 25.3965 7.888C24.7138 8.4 24.0205 8.784 23.3165 9.04C22.6338 9.27467 21.9405 9.30667 21.2365 9.136C20.8952 8.98667 20.6498 8.77333 20.5005 8.496C20.3725 8.19733 20.3298 7.86667 20.3725 7.504C20.4365 7.14133 20.5645 6.69333 20.7565 6.16C20.5218 6.37333 20.2765 6.576 20.0205 6.768C19.7858 6.96 19.5298 7.17333 19.2525 7.408C16.3085 9.73333 14.0152 10.896 12.3725 10.896ZM34.1398 9.072C33.8838 9.072 33.6704 8.99733 33.4998 8.848C33.1584 8.57067 33.0624 8.21867 33.2118 7.792C33.2118 7.77067 33.2864 7.51467 33.4358 7.024C33.6064 6.53333 33.7984 5.97867 34.0118 5.36C34.1184 4.99733 34.2144 4.688 34.2998 4.432C34.3851 4.15467 34.4598 3.90933 34.5238 3.696C33.9478 3.90933 33.2438 4.176 32.4118 4.496C31.5798 4.79467 30.7051 5.11467 29.7878 5.456C28.8918 5.79733 28.0171 6.128 27.1638 6.448C26.9291 6.53333 26.6944 6.52267 26.4597 6.416C26.2037 6.288 26.0224 6.096 25.9157 5.84C25.8304 5.60533 25.8517 5.37067 25.9797 5.136C26.0864 4.88 26.2677 4.69867 26.5237 4.592C27.4837 4.25067 28.4758 3.89867 29.4998 3.536C30.5238 3.152 31.4731 2.8 32.3478 2.48C33.2224 2.13867 33.9371 1.86133 34.4918 1.648C35.0464 1.43467 35.3238 1.328 35.3238 1.328C35.4304 1.30667 35.5371 1.296 35.6438 1.296C35.7504 1.27467 35.8464 1.28533 35.9318 1.328C36.2304 1.37067 36.4438 1.54133 36.5718 1.84C36.6784 2.01067 36.7211 2.23467 36.6998 2.512C36.6998 2.768 36.6464 3.14133 36.5398 3.632C36.4758 3.90933 36.3904 4.21867 36.2838 4.56C36.1984 4.88 36.0811 5.25333 35.9318 5.68C35.9104 5.76533 35.8891 5.84 35.8678 5.904C35.8464 5.968 35.8251 6.04267 35.8038 6.128C36.6571 5.65867 37.7024 5.168 38.9398 4.656C39.1744 4.54933 39.4091 4.54933 39.6438 4.656C39.8998 4.74133 40.0704 4.90133 40.1558 5.136C40.2838 5.37067 40.2944 5.616 40.1878 5.872C40.0811 6.128 39.9104 6.30933 39.6758 6.416C38.7158 6.84267 37.8518 7.248 37.0838 7.632C36.3371 8.016 35.7398 8.32533 35.2917 8.56C34.8438 8.79467 34.6198 8.912 34.6198 8.912C34.4918 9.01867 34.3318 9.072 34.1398 9.072ZM46.5773 9.072C46.3213 9.072 46.1079 8.99733 45.9373 8.848C45.5959 8.57067 45.4999 8.21867 45.6493 7.792C45.6493 7.77067 45.7239 7.51467 45.8733 7.024C46.0439 6.53333 46.2359 5.97867 46.4493 5.36C46.5559 4.99733 46.6519 4.688 46.7373 4.432C46.8226 4.15467 46.8973 3.90933 46.9613 3.696C46.3853 3.90933 45.6813 4.176 44.8493 4.496C44.0173 4.79467 43.1426 5.11467 42.2253 5.456C41.3293 5.79733 40.4546 6.128 39.6013 6.448C39.3666 6.53333 39.1319 6.52267 38.8972 6.416C38.6412 6.288 38.4599 6.096 38.3532 5.84C38.2679 5.60533 38.2892 5.37067 38.4172 5.136C38.5239 4.88 38.7052 4.69867 38.9612 4.592C39.9212 4.25067 40.9133 3.89867 41.9373 3.536C42.9613 3.152 43.9106 2.8 44.7853 2.48C45.6599 2.13867 46.3746 1.86133 46.9293 1.648C47.4839 1.43467 47.7613 1.328 47.7613 1.328C47.8679 1.30667 47.9746 1.296 48.0813 1.296C48.1879 1.27467 48.2839 1.28533 48.3693 1.328C48.6679 1.37067 48.8813 1.54133 49.0093 1.84C49.1159 2.01067 49.1586 2.23467 49.1373 2.512C49.1373 2.768 49.0839 3.14133 48.9773 3.632C48.9133 3.90933 48.8279 4.21867 48.7213 4.56C48.6359 4.88 48.5186 5.25333 48.3693 5.68C48.3479 5.76533 48.3266 5.84 48.3053 5.904C48.2839 5.968 48.2626 6.04267 48.2413 6.128C49.0946 5.65867 50.1399 5.168 51.3773 4.656C51.6119 4.54933 51.8466 4.54933 52.0813 4.656C52.3373 4.74133 52.5079 4.90133 52.5933 5.136C52.7213 5.37067 52.7319 5.616 52.6253 5.872C52.5186 6.128 52.3479 6.30933 52.1133 6.416C51.1533 6.84267 50.2893 7.248 49.5213 7.632C48.7746 8.016 48.1773 8.32533 47.7292 8.56C47.2813 8.79467 47.0573 8.912 47.0573 8.912C46.9293 9.01867 46.7693 9.072 46.5773 9.072ZM62.9508 8.752C62.8014 8.752 62.6628 8.73067 62.5348 8.688C62.1294 8.60267 61.8414 8.35733 61.6708 7.952C61.5428 7.58933 61.5748 7.184 61.7668 6.736C61.9801 6.288 62.2574 5.78667 62.5988 5.232C62.7268 5.04 62.8441 4.848 62.9508 4.656C63.0788 4.44267 63.1854 4.25067 63.2708 4.08C63.3134 4.016 63.3454 3.96267 63.3668 3.92C63.3881 3.856 63.4094 3.80267 63.4308 3.76C62.7908 3.65333 62.0441 3.632 61.1908 3.696C60.3588 3.73867 59.4201 3.89867 58.3748 4.176C57.4574 4.41067 56.4654 4.72 55.3988 5.104C54.3534 5.46667 53.2441 5.904 52.0708 6.416C51.8361 6.50133 51.6014 6.50133 51.3667 6.416C51.1321 6.33067 50.9614 6.17067 50.8547 5.936C50.7267 5.70133 50.7161 5.456 50.8227 5.2C50.9294 4.92267 51.1001 4.74133 51.3347 4.656C52.5294 4.12267 53.6708 3.664 54.7588 3.28C55.8681 2.87467 56.9134 2.55467 57.8948 2.32C60.5188 1.65867 62.6628 1.552 64.3268 2C64.8174 2.128 65.1588 2.42667 65.3508 2.896C65.5428 3.36533 65.5001 3.888 65.2228 4.464C64.9454 5.04 64.6148 5.63733 64.2308 6.256C64.2094 6.29867 64.1774 6.352 64.1348 6.416C64.0921 6.48 64.0494 6.55467 64.0068 6.64C64.4974 6.53333 65.2228 6.32 66.1828 6C67.1428 5.68 68.4654 5.21067 70.1508 4.592C70.3854 4.50667 70.6201 4.528 70.8548 4.656C71.1108 4.76267 71.2814 4.944 71.3668 5.2C71.4734 5.43467 71.4734 5.68 71.3668 5.936C71.2601 6.17067 71.0681 6.34133 70.7908 6.448C69.8094 6.78933 68.9134 7.09867 68.1028 7.376C67.2921 7.65333 66.5668 7.888 65.9268 8.08C65.0734 8.336 64.4228 8.51733 63.9748 8.624C63.5268 8.70933 63.1854 8.752 62.9508 8.752ZM93.421 9.072C93.165 9.072 92.9517 8.99733 92.781 8.848C92.4397 8.57067 92.3437 8.21867 92.493 7.792C92.493 7.77067 92.5677 7.51467 92.717 7.024C92.8877 6.53333 93.0797 5.97867 93.293 5.36C93.3997 4.99733 93.4957 4.688 93.581 4.432C93.6663 4.15467 93.741 3.90933 93.805 3.696C93.229 3.90933 92.525 4.176 91.693 4.496C90.861 4.79467 89.9863 5.11467 89.069 5.456C88.173 5.79733 87.2983 6.128 86.445 6.448C86.2103 6.53333 85.9757 6.52267 85.741 6.416C85.485 6.288 85.3037 6.096 85.197 5.84C85.1117 5.60533 85.133 5.37067 85.261 5.136C85.3677 4.88 85.549 4.69867 85.805 4.592C86.765 4.25067 87.757 3.89867 88.781 3.536C89.805 3.152 90.7543 2.8 91.629 2.48C92.5037 2.13867 93.2183 1.86133 93.773 1.648C94.3277 1.43467 94.605 1.328 94.605 1.328C94.7117 1.30667 94.8183 1.296 94.925 1.296C95.0317 1.27467 95.1277 1.28533 95.213 1.328C95.5117 1.37067 95.725 1.54133 95.853 1.84C95.9597 2.01067 96.0023 2.23467 95.981 2.512C95.981 2.768 95.9277 3.14133 95.821 3.632C95.757 3.90933 95.6717 4.21867 95.565 4.56C95.4797 4.88 95.3623 5.25333 95.213 5.68C95.1917 5.76533 95.1703 5.84 95.149 5.904C95.1277 5.968 95.1063 6.04267 95.085 6.128C95.9383 5.65867 96.9837 5.168 98.221 4.656C98.4557 4.54933 98.6903 4.54933 98.925 4.656C99.181 4.74133 99.3517 4.90133 99.437 5.136C99.565 5.37067 99.5757 5.616 99.469 5.872C99.3623 6.128 99.1917 6.30933 98.957 6.416C97.997 6.84267 97.133 7.248 96.365 7.632C95.6183 8.016 95.021 8.32533 94.573 8.56C94.125 8.79467 93.901 8.912 93.901 8.912C93.773 9.01867 93.613 9.072 93.421 9.072ZM102.819 8.112C102.712 8.112 102.627 8.10133 102.562 8.08C102.221 7.99467 101.976 7.86667 101.827 7.696C101.699 7.504 101.613 7.35467 101.571 7.248C101.421 6.77867 101.475 6.29867 101.731 5.808C101.987 5.296 102.317 4.76267 102.723 4.208C102.851 4.03733 102.968 3.856 103.075 3.664C103.203 3.45067 103.309 3.26933 103.395 3.12C103.416 3.09867 103.448 3.056 103.491 2.992C103.363 3.03467 103.203 3.09867 103.011 3.184C102.84 3.26933 102.637 3.39733 102.403 3.568C102.019 3.80267 101.613 4.112 101.187 4.496C100.76 4.85867 100.323 5.24267 99.8745 5.648C99.7678 5.73333 99.6505 5.82933 99.5225 5.936C99.4158 6.04267 99.3092 6.14933 99.2025 6.256C99.0105 6.42667 98.7865 6.512 98.5305 6.512C98.2532 6.49067 98.0292 6.37333 97.8585 6.16C97.6665 5.968 97.5812 5.744 97.6025 5.488C97.6238 5.21067 97.7305 4.98667 97.9225 4.816C98.0292 4.70933 98.1465 4.60267 98.2745 4.496C98.3812 4.38933 98.4878 4.29333 98.5945 4.208C99.2772 3.58933 99.9492 3.024 100.611 2.512C101.272 1.97867 101.923 1.57333 102.562 1.296C103.203 1.01867 103.821 0.965333 104.419 1.136C104.781 1.22133 105.037 1.37067 105.187 1.584C105.357 1.776 105.453 1.94667 105.475 2.096C105.667 2.56533 105.624 3.06667 105.347 3.6C105.069 4.112 104.717 4.67733 104.291 5.296C104.248 5.33867 104.195 5.41333 104.131 5.52C104.088 5.60533 104.035 5.69067 103.971 5.776C104.291 5.648 104.707 5.488 105.219 5.296C105.731 5.104 106.349 4.86933 107.075 4.592C107.352 4.50667 107.608 4.528 107.843 4.656C108.077 4.76267 108.237 4.944 108.323 5.2C108.429 5.43467 108.419 5.68 108.291 5.936C108.184 6.17067 108.013 6.34133 107.779 6.448C107.096 6.68267 106.477 6.896 105.923 7.088C105.368 7.28 104.899 7.45067 104.515 7.6C104.301 7.68533 104.109 7.76 103.939 7.824C103.789 7.86667 103.651 7.90933 103.523 7.952C103.373 7.99467 103.245 8.03733 103.139 8.08C103.032 8.10133 102.925 8.112 102.819 8.112ZM114.671 9.072C114.415 9.072 114.202 8.99733 114.031 8.848C113.69 8.57067 113.594 8.21867 113.743 7.792C113.743 7.77067 113.818 7.51467 113.967 7.024C114.138 6.53333 114.33 5.97867 114.543 5.36C114.65 4.99733 114.746 4.688 114.831 4.432C114.916 4.15467 114.991 3.90933 115.055 3.696C114.479 3.90933 113.775 4.176 112.943 4.496C112.111 4.79467 111.236 5.11467 110.319 5.456C109.423 5.79733 108.548 6.128 107.695 6.448C107.46 6.53333 107.226 6.52267 106.991 6.416C106.735 6.288 106.554 6.096 106.447 5.84C106.362 5.60533 106.383 5.37067 106.511 5.136C106.618 4.88 106.799 4.69867 107.055 4.592C108.015 4.25067 109.007 3.89867 110.031 3.536C111.055 3.152 112.004 2.8 112.879 2.48C113.754 2.13867 114.468 1.86133 115.023 1.648C115.578 1.43467 115.855 1.328 115.855 1.328C115.962 1.30667 116.068 1.296 116.175 1.296C116.282 1.27467 116.378 1.28533 116.463 1.328C116.762 1.37067 116.975 1.54133 117.103 1.84C117.21 2.01067 117.252 2.23467 117.231 2.512C117.231 2.768 117.178 3.14133 117.071 3.632C117.007 3.90933 116.922 4.21867 116.815 4.56C116.73 4.88 116.612 5.25333 116.463 5.68C116.442 5.76533 116.42 5.84 116.399 5.904C116.378 5.968 116.356 6.04267 116.335 6.128C117.188 5.65867 118.234 5.168 119.471 4.656C119.706 4.54933 119.94 4.54933 120.175 4.656C120.431 4.74133 120.602 4.90133 120.687 5.136C120.815 5.37067 120.826 5.616 120.719 5.872C120.612 6.128 120.442 6.30933 120.207 6.416C119.247 6.84267 118.383 7.248 117.615 7.632C116.868 8.016 116.271 8.32533 115.823 8.56C115.375 8.79467 115.151 8.912 115.151 8.912C115.023 9.01867 114.863 9.072 114.671 9.072ZM127.109 9.072C126.853 9.072 126.639 8.99733 126.469 8.848C126.127 8.57067 126.031 8.21867 126.181 7.792C126.181 7.77067 126.255 7.51467 126.405 7.024C126.575 6.53333 126.767 5.97867 126.981 5.36C127.087 4.99733 127.183 4.688 127.269 4.432C127.354 4.15467 127.429 3.90933 127.493 3.696C126.917 3.90933 126.213 4.176 125.381 4.496C124.549 4.79467 123.674 5.11467 122.757 5.456C121.861 5.79733 120.986 6.128 120.133 6.448C119.898 6.53333 119.663 6.52267 119.428 6.416C119.172 6.288 118.991 6.096 118.884 5.84C118.799 5.60533 118.82 5.37067 118.948 5.136C119.055 4.88 119.236 4.69867 119.492 4.592C120.452 4.25067 121.445 3.89867 122.469 3.536C123.493 3.152 124.442 2.8 125.317 2.48C126.191 2.13867 126.906 1.86133 127.461 1.648C128.015 1.43467 128.293 1.328 128.293 1.328C128.399 1.30667 128.506 1.296 128.613 1.296C128.719 1.27467 128.815 1.28533 128.901 1.328C129.199 1.37067 129.413 1.54133 129.541 1.84C129.647 2.01067 129.69 2.23467 129.669 2.512C129.669 2.768 129.615 3.14133 129.509 3.632C129.445 3.90933 129.359 4.21867 129.253 4.56C129.167 4.88 129.05 5.25333 128.901 5.68C128.879 5.76533 128.858 5.84 128.837 5.904C128.815 5.968 128.794 6.04267 128.773 6.128C129.626 5.65867 130.671 5.168 131.909 4.656C132.143 4.54933 132.378 4.54933 132.613 4.656C132.869 4.74133 133.039 4.90133 133.125 5.136C133.253 5.37067 133.263 5.616 133.157 5.872C133.05 6.128 132.879 6.30933 132.645 6.416C131.685 6.84267 130.821 7.248 130.053 7.632C129.306 8.016 128.709 8.32533 128.26 8.56C127.813 8.79467 127.589 8.912 127.589 8.912C127.461 9.01867 127.301 9.072 127.109 9.072ZM134.81 10.896C134.661 10.896 134.511 10.8747 134.362 10.832C134.213 10.8107 134.063 10.7893 133.914 10.768C133.53 10.6613 133.263 10.4373 133.114 10.096C132.922 9.66933 132.922 9.15733 133.114 8.56C133.327 7.94133 133.669 7.152 134.138 6.192C134.223 6.02133 134.309 5.82933 134.394 5.616C134.501 5.40267 134.597 5.2 134.682 5.008C134.405 5.11467 134.106 5.296 133.786 5.552C133.487 5.78667 133.178 6.032 132.858 6.288C132.645 6.43733 132.41 6.50133 132.154 6.48C131.877 6.43733 131.653 6.32 131.482 6.128C131.333 5.91467 131.279 5.68 131.322 5.424C131.343 5.168 131.45 4.944 131.642 4.752C131.941 4.53867 132.25 4.304 132.57 4.048C132.911 3.792 133.253 3.57867 133.594 3.408C134.469 2.96 135.269 2.84267 135.994 3.056C136.335 3.12 136.591 3.33333 136.762 3.696C136.933 4.03733 136.922 4.464 136.73 4.976C136.559 5.488 136.261 6.18133 135.834 7.056C135.727 7.312 135.61 7.568 135.482 7.824C135.375 8.08 135.269 8.32533 135.162 8.56C135.141 8.64533 135.109 8.72 135.066 8.784C135.045 8.848 135.023 8.912 135.002 8.976C135.45 8.912 136.101 8.688 136.954 8.304C137.829 7.89867 139.002 7.10933 140.474 5.936C141.263 5.31733 141.978 4.72 142.618 4.144C143.258 3.54667 143.77 3.056 144.154 2.672C144.538 2.288 144.73 2.096 144.73 2.096C144.986 1.79733 145.295 1.70133 145.658 1.808C145.829 1.82933 145.967 1.904 146.074 2.032C146.181 2.13867 146.266 2.24533 146.33 2.352C146.479 2.65067 146.49 3.00267 146.362 3.408C146.255 3.792 146.021 4.42133 145.658 5.296C145.53 5.57333 145.402 5.85067 145.274 6.128C145.167 6.40533 145.061 6.66133 144.954 6.896C144.933 6.98133 144.911 7.056 144.89 7.12C144.89 7.16267 144.879 7.20533 144.858 7.248C145.263 7.184 145.69 7.01333 146.138 6.736C146.607 6.43733 147.055 6.10667 147.482 5.744C147.93 5.38133 148.303 5.072 148.602 4.816C148.815 4.624 149.05 4.53867 149.306 4.56C149.562 4.58133 149.786 4.688 149.978 4.88C150.149 5.09333 150.223 5.328 150.202 5.584C150.202 5.84 150.095 6.064 149.882 6.256C149.221 6.832 148.538 7.376 147.834 7.888C147.151 8.4 146.458 8.784 145.754 9.04C145.071 9.27467 144.378 9.30667 143.674 9.136C143.333 8.98667 143.087 8.77333 142.938 8.496C142.81 8.19733 142.767 7.86667 142.81 7.504C142.874 7.14133 143.002 6.69333 143.194 6.16C142.959 6.37333 142.714 6.576 142.458 6.768C142.223 6.96 141.967 7.17333 141.69 7.408C138.746 9.73333 136.453 10.896 134.81 10.896ZM156.577 9.072C156.321 9.072 156.108 8.99733 155.937 8.848C155.596 8.57067 155.5 8.21867 155.649 7.792C155.649 7.77067 155.724 7.51467 155.873 7.024C156.044 6.53333 156.236 5.97867 156.449 5.36C156.556 4.99733 156.652 4.688 156.737 4.432C156.823 4.15467 156.897 3.90933 156.961 3.696C156.385 3.90933 155.681 4.176 154.849 4.496C154.017 4.79467 153.143 5.11467 152.225 5.456C151.329 5.79733 150.455 6.128 149.601 6.448C149.367 6.53333 149.132 6.52267 148.897 6.416C148.641 6.288 148.46 6.096 148.353 5.84C148.268 5.60533 148.289 5.37067 148.417 5.136C148.524 4.88 148.705 4.69867 148.961 4.592C149.921 4.25067 150.913 3.89867 151.937 3.536C152.961 3.152 153.911 2.8 154.785 2.48C155.66 2.13867 156.375 1.86133 156.929 1.648C157.484 1.43467 157.761 1.328 157.761 1.328C157.868 1.30667 157.975 1.296 158.081 1.296C158.188 1.27467 158.284 1.28533 158.369 1.328C158.668 1.37067 158.881 1.54133 159.009 1.84C159.116 2.01067 159.159 2.23467 159.137 2.512C159.137 2.768 159.084 3.14133 158.977 3.632C158.913 3.90933 158.828 4.21867 158.721 4.56C158.636 4.88 158.519 5.25333 158.369 5.68C158.348 5.76533 158.327 5.84 158.305 5.904C158.284 5.968 158.263 6.04267 158.241 6.128C159.095 5.65867 160.14 5.168 161.377 4.656C161.612 4.54933 161.847 4.54933 162.081 4.656C162.337 4.74133 162.508 4.90133 162.593 5.136C162.721 5.37067 162.732 5.616 162.625 5.872C162.519 6.128 162.348 6.30933 162.113 6.416C161.153 6.84267 160.289 7.248 159.521 7.632C158.775 8.016 158.177 8.32533 157.729 8.56C157.281 8.79467 157.057 8.912 157.057 8.912C156.929 9.01867 156.769 9.072 156.577 9.072ZM169.015 9.072C168.759 9.072 168.545 8.99733 168.375 8.848C168.033 8.57067 167.937 8.21867 168.087 7.792C168.087 7.77067 168.161 7.51467 168.311 7.024C168.481 6.53333 168.673 5.97867 168.887 5.36C168.993 4.99733 169.089 4.688 169.175 4.432C169.26 4.15467 169.335 3.90933 169.399 3.696C168.823 3.90933 168.119 4.176 167.287 4.496C166.455 4.79467 165.58 5.11467 164.663 5.456C163.767 5.79733 162.892 6.128 162.039 6.448C161.804 6.53333 161.569 6.52267 161.335 6.416C161.079 6.288 160.897 6.096 160.791 5.84C160.705 5.60533 160.727 5.37067 160.855 5.136C160.961 4.88 161.143 4.69867 161.399 4.592C162.359 4.25067 163.351 3.89867 164.375 3.536C165.399 3.152 166.348 2.8 167.223 2.48C168.097 2.13867 168.812 1.86133 169.367 1.648C169.921 1.43467 170.199 1.328 170.199 1.328C170.305 1.30667 170.412 1.296 170.519 1.296C170.625 1.27467 170.721 1.28533 170.807 1.328C171.105 1.37067 171.319 1.54133 171.447 1.84C171.553 2.01067 171.596 2.23467 171.575 2.512C171.575 2.768 171.521 3.14133 171.415 3.632C171.351 3.90933 171.265 4.21867 171.159 4.56C171.073 4.88 170.956 5.25333 170.807 5.68C170.785 5.76533 170.764 5.84 170.743 5.904C170.721 5.968 170.7 6.04267 170.679 6.128C171.532 5.65867 172.577 5.168 173.815 4.656C174.049 4.54933 174.284 4.54933 174.519 4.656C174.775 4.74133 174.945 4.90133 175.031 5.136C175.159 5.37067 175.169 5.616 175.063 5.872C174.956 6.128 174.785 6.30933 174.551 6.416C173.591 6.84267 172.727 7.248 171.959 7.632C171.212 8.016 170.615 8.32533 170.167 8.56C169.719 8.79467 169.495 8.912 169.495 8.912C169.367 9.01867 169.207 9.072 169.015 9.072ZM181.452 9.072C181.196 9.072 180.983 8.99733 180.812 8.848C180.471 8.57067 180.375 8.21867 180.524 7.792C180.524 7.77067 180.599 7.51467 180.748 7.024C180.919 6.53333 181.111 5.97867 181.324 5.36C181.431 4.99733 181.527 4.688 181.612 4.432C181.698 4.15467 181.772 3.90933 181.836 3.696C181.26 3.90933 180.556 4.176 179.724 4.496C178.892 4.79467 178.018 5.11467 177.1 5.456C176.204 5.79733 175.33 6.128 174.476 6.448C174.242 6.53333 174.007 6.52267 173.772 6.416C173.516 6.288 173.335 6.096 173.228 5.84C173.143 5.60533 173.164 5.37067 173.292 5.136C173.399 4.88 173.58 4.69867 173.836 4.592C174.796 4.25067 175.788 3.89867 176.812 3.536C177.836 3.152 178.786 2.8 179.66 2.48C180.535 2.13867 181.25 1.86133 181.804 1.648C182.359 1.43467 182.636 1.328 182.636 1.328C182.743 1.30667 182.85 1.296 182.956 1.296C183.063 1.27467 183.159 1.28533 183.244 1.328C183.543 1.37067 183.756 1.54133 183.884 1.84C183.991 2.01067 184.034 2.23467 184.012 2.512C184.012 2.768 183.959 3.14133 183.852 3.632C183.788 3.90933 183.703 4.21867 183.596 4.56C183.511 4.88 183.394 5.25333 183.244 5.68C183.223 5.76533 183.202 5.84 183.18 5.904C183.159 5.968 183.138 6.04267 183.116 6.128C183.97 5.65867 185.015 5.168 186.252 4.656C186.487 4.54933 186.722 4.54933 186.956 4.656C187.212 4.74133 187.383 4.90133 187.468 5.136C187.596 5.37067 187.607 5.616 187.5 5.872C187.394 6.128 187.223 6.30933 186.988 6.416C186.028 6.84267 185.164 7.248 184.396 7.632C183.65 8.016 183.052 8.32533 182.604 8.56C182.156 8.79467 181.932 8.912 181.932 8.912C181.804 9.01867 181.644 9.072 181.452 9.072ZM193.89 9.072C193.634 9.072 193.42 8.99733 193.25 8.848C192.908 8.57067 192.812 8.21867 192.962 7.792C192.962 7.77067 193.036 7.51467 193.186 7.024C193.356 6.53333 193.548 5.97867 193.762 5.36C193.868 4.99733 193.964 4.688 194.05 4.432C194.135 4.15467 194.21 3.90933 194.274 3.696C193.698 3.90933 192.994 4.176 192.162 4.496C191.33 4.79467 190.455 5.11467 189.538 5.456C188.642 5.79733 187.767 6.128 186.914 6.448C186.679 6.53333 186.444 6.52267 186.21 6.416C185.954 6.288 185.772 6.096 185.666 5.84C185.58 5.60533 185.602 5.37067 185.73 5.136C185.836 4.88 186.018 4.69867 186.274 4.592C187.234 4.25067 188.226 3.89867 189.25 3.536C190.274 3.152 191.223 2.8 192.098 2.48C192.972 2.13867 193.687 1.86133 194.242 1.648C194.796 1.43467 195.074 1.328 195.074 1.328C195.18 1.30667 195.287 1.296 195.394 1.296C195.5 1.27467 195.596 1.28533 195.682 1.328C195.98 1.37067 196.194 1.54133 196.322 1.84C196.428 2.01067 196.471 2.23467 196.45 2.512C196.45 2.768 196.396 3.14133 196.29 3.632C196.226 3.90933 196.14 4.21867 196.034 4.56C195.948 4.88 195.831 5.25333 195.682 5.68C195.66 5.76533 195.639 5.84 195.618 5.904C195.596 5.968 195.575 6.04267 195.554 6.128C196.407 5.65867 197.452 5.168 198.69 4.656C198.924 4.54933 199.159 4.54933 199.394 4.656C199.65 4.74133 199.82 4.90133 199.906 5.136C200.034 5.37067 200.044 5.616 199.938 5.872C199.831 6.128 199.66 6.30933 199.426 6.416C198.466 6.84267 197.602 7.248 196.834 7.632C196.087 8.016 195.49 8.32533 195.042 8.56C194.594 8.79467 194.37 8.912 194.37 8.912C194.242 9.01867 194.082 9.072 193.89 9.072ZM203.287 8.112C203.181 8.112 203.095 8.10133 203.031 8.08C202.69 7.99467 202.445 7.86667 202.295 7.696C202.167 7.504 202.082 7.35467 202.039 7.248C201.89 6.77867 201.943 6.29867 202.199 5.808C202.455 5.296 202.786 4.76267 203.191 4.208C203.319 4.03733 203.437 3.856 203.543 3.664C203.671 3.45067 203.778 3.26933 203.863 3.12C203.885 3.09867 203.917 3.056 203.959 2.992C203.831 3.03467 203.671 3.09867 203.479 3.184C203.309 3.26933 203.106 3.39733 202.871 3.568C202.487 3.80267 202.082 4.112 201.655 4.496C201.229 4.85867 200.791 5.24267 200.343 5.648C200.237 5.73333 200.119 5.82933 199.991 5.936C199.885 6.04267 199.778 6.14933 199.671 6.256C199.479 6.42667 199.255 6.512 198.999 6.512C198.722 6.49067 198.498 6.37333 198.327 6.16C198.135 5.968 198.05 5.744 198.071 5.488C198.093 5.21067 198.199 4.98667 198.391 4.816C198.498 4.70933 198.615 4.60267 198.743 4.496C198.85 4.38933 198.957 4.29333 199.063 4.208C199.746 3.58933 200.418 3.024 201.079 2.512C201.741 1.97867 202.391 1.57333 203.031 1.296C203.671 1.01867 204.29 0.965333 204.887 1.136C205.25 1.22133 205.506 1.37067 205.655 1.584C205.826 1.776 205.922 1.94667 205.943 2.096C206.135 2.56533 206.093 3.06667 205.815 3.6C205.538 4.112 205.186 4.67733 204.759 5.296C204.717 5.33867 204.663 5.41333 204.599 5.52C204.557 5.60533 204.503 5.69067 204.439 5.776C204.759 5.648 205.175 5.488 205.687 5.296C206.199 5.104 206.818 4.86933 207.543 4.592C207.821 4.50667 208.077 4.528 208.311 4.656C208.546 4.76267 208.706 4.944 208.791 5.2C208.898 5.43467 208.887 5.68 208.759 5.936C208.653 6.17067 208.482 6.34133 208.247 6.448C207.565 6.68267 206.946 6.896 206.391 7.088C205.837 7.28 205.367 7.45067 204.983 7.6C204.77 7.68533 204.578 7.76 204.407 7.824C204.258 7.86667 204.119 7.90933 203.991 7.952C203.842 7.99467 203.714 8.03733 203.607 8.08C203.501 8.10133 203.394 8.112 203.287 8.112ZM215.14 9.072C214.884 9.072 214.67 8.99733 214.5 8.848C214.158 8.57067 214.062 8.21867 214.212 7.792C214.212 7.77067 214.286 7.51467 214.436 7.024C214.606 6.53333 214.798 5.97867 215.012 5.36C215.118 4.99733 215.214 4.688 215.3 4.432C215.385 4.15467 215.46 3.90933 215.524 3.696C214.948 3.90933 214.244 4.176 213.412 4.496C212.58 4.79467 211.705 5.11467 210.788 5.456C209.892 5.79733 209.017 6.128 208.164 6.448C207.929 6.53333 207.694 6.52267 207.46 6.416C207.204 6.288 207.022 6.096 206.916 5.84C206.83 5.60533 206.852 5.37067 206.98 5.136C207.086 4.88 207.268 4.69867 207.524 4.592C208.484 4.25067 209.476 3.89867 210.5 3.536C211.524 3.152 212.473 2.8 213.348 2.48C214.222 2.13867 214.937 1.86133 215.492 1.648C216.046 1.43467 216.324 1.328 216.324 1.328C216.43 1.30667 216.537 1.296 216.644 1.296C216.75 1.27467 216.846 1.28533 216.932 1.328C217.23 1.37067 217.444 1.54133 217.572 1.84C217.678 2.01067 217.721 2.23467 217.7 2.512C217.7 2.768 217.646 3.14133 217.54 3.632C217.476 3.90933 217.39 4.21867 217.284 4.56C217.198 4.88 217.081 5.25333 216.932 5.68C216.91 5.76533 216.889 5.84 216.868 5.904C216.846 5.968 216.825 6.04267 216.804 6.128C217.657 5.65867 218.702 5.168 219.94 4.656C220.174 4.54933 220.409 4.54933 220.644 4.656C220.9 4.74133 221.07 4.90133 221.156 5.136C221.284 5.37067 221.294 5.616 221.188 5.872C221.081 6.128 220.91 6.30933 220.676 6.416C219.716 6.84267 218.852 7.248 218.084 7.632C217.337 8.016 216.74 8.32533 216.292 8.56C215.844 8.79467 215.62 8.912 215.62 8.912C215.492 9.01867 215.332 9.072 215.14 9.072ZM224.537 8.112C224.431 8.112 224.345 8.10133 224.281 8.08C223.94 7.99467 223.695 7.86667 223.545 7.696C223.417 7.504 223.332 7.35467 223.289 7.248C223.14 6.77867 223.193 6.29867 223.449 5.808C223.705 5.296 224.036 4.76267 224.441 4.208C224.569 4.03733 224.687 3.856 224.793 3.664C224.921 3.45067 225.028 3.26933 225.113 3.12C225.135 3.09867 225.167 3.056 225.209 2.992C225.081 3.03467 224.921 3.09867 224.729 3.184C224.559 3.26933 224.356 3.39733 224.121 3.568C223.737 3.80267 223.332 4.112 222.905 4.496C222.479 4.85867 222.041 5.24267 221.593 5.648C221.487 5.73333 221.369 5.82933 221.241 5.936C221.135 6.04267 221.028 6.14933 220.921 6.256C220.729 6.42667 220.505 6.512 220.249 6.512C219.972 6.49067 219.748 6.37333 219.577 6.16C219.385 5.968 219.3 5.744 219.321 5.488C219.343 5.21067 219.449 4.98667 219.641 4.816C219.748 4.70933 219.865 4.60267 219.993 4.496C220.1 4.38933 220.207 4.29333 220.313 4.208C220.996 3.58933 221.668 3.024 222.329 2.512C222.991 1.97867 223.641 1.57333 224.281 1.296C224.921 1.01867 225.54 0.965333 226.137 1.136C226.5 1.22133 226.756 1.37067 226.905 1.584C227.076 1.776 227.172 1.94667 227.193 2.096C227.385 2.56533 227.343 3.06667 227.065 3.6C226.788 4.112 226.436 4.67733 226.009 5.296C225.967 5.33867 225.913 5.41333 225.849 5.52C225.807 5.60533 225.753 5.69067 225.689 5.776C226.009 5.648 226.425 5.488 226.937 5.296C227.449 5.104 228.068 4.86933 228.793 4.592C229.071 4.50667 229.327 4.528 229.561 4.656C229.796 4.76267 229.956 4.944 230.041 5.2C230.148 5.43467 230.137 5.68 230.009 5.936C229.903 6.17067 229.732 6.34133 229.497 6.448C228.815 6.68267 228.196 6.896 227.641 7.088C227.087 7.28 226.617 7.45067 226.233 7.6C226.02 7.68533 225.828 7.76 225.657 7.824C225.508 7.86667 225.369 7.90933 225.241 7.952C225.092 7.99467 224.964 8.03733 224.857 8.08C224.751 8.10133 224.644 8.112 224.537 8.112ZM248.912 8.112C248.806 8.112 248.72 8.10133 248.656 8.08C248.315 7.99467 248.07 7.86667 247.92 7.696C247.792 7.504 247.707 7.35467 247.664 7.248C247.515 6.77867 247.568 6.29867 247.824 5.808C248.08 5.296 248.411 4.76267 248.816 4.208C248.944 4.03733 249.062 3.856 249.168 3.664C249.296 3.45067 249.403 3.26933 249.488 3.12C249.51 3.09867 249.542 3.056 249.584 2.992C249.456 3.03467 249.296 3.09867 249.104 3.184C248.934 3.26933 248.731 3.39733 248.496 3.568C248.112 3.80267 247.707 4.112 247.28 4.496C246.854 4.85867 246.416 5.24267 245.968 5.648C245.862 5.73333 245.744 5.82933 245.616 5.936C245.51 6.04267 245.403 6.14933 245.296 6.256C245.104 6.42667 244.88 6.512 244.624 6.512C244.347 6.49067 244.123 6.37333 243.952 6.16C243.76 5.968 243.675 5.744 243.696 5.488C243.718 5.21067 243.824 4.98667 244.016 4.816C244.123 4.70933 244.24 4.60267 244.368 4.496C244.475 4.38933 244.582 4.29333 244.688 4.208C245.371 3.58933 246.043 3.024 246.704 2.512C247.366 1.97867 248.016 1.57333 248.656 1.296C249.296 1.01867 249.915 0.965333 250.512 1.136C250.875 1.22133 251.131 1.37067 251.28 1.584C251.451 1.776 251.547 1.94667 251.568 2.096C251.76 2.56533 251.718 3.06667 251.44 3.6C251.163 4.112 250.811 4.67733 250.384 5.296C250.342 5.33867 250.288 5.41333 250.224 5.52C250.182 5.60533 250.128 5.69067 250.064 5.776C250.384 5.648 250.8 5.488 251.312 5.296C251.824 5.104 252.443 4.86933 253.168 4.592C253.446 4.50667 253.702 4.528 253.936 4.656C254.171 4.76267 254.331 4.944 254.416 5.2C254.523 5.43467 254.512 5.68 254.384 5.936C254.278 6.17067 254.107 6.34133 253.872 6.448C253.19 6.68267 252.571 6.896 252.016 7.088C251.462 7.28 250.992 7.45067 250.608 7.6C250.395 7.68533 250.203 7.76 250.032 7.824C249.883 7.86667 249.744 7.90933 249.616 7.952C249.467 7.99467 249.339 8.03733 249.232 8.08C249.126 8.10133 249.019 8.112 248.912 8.112ZM260.765 9.072C260.509 9.072 260.295 8.99733 260.125 8.848C259.783 8.57067 259.687 8.21867 259.837 7.792C259.837 7.77067 259.911 7.51467 260.061 7.024C260.231 6.53333 260.423 5.97867 260.637 5.36C260.743 4.99733 260.839 4.688 260.925 4.432C261.01 4.15467 261.085 3.90933 261.149 3.696C260.573 3.90933 259.869 4.176 259.037 4.496C258.205 4.79467 257.33 5.11467 256.413 5.456C255.517 5.79733 254.642 6.128 253.789 6.448C253.554 6.53333 253.319 6.52267 253.085 6.416C252.829 6.288 252.647 6.096 252.541 5.84C252.455 5.60533 252.477 5.37067 252.605 5.136C252.711 4.88 252.893 4.69867 253.149 4.592C254.109 4.25067 255.101 3.89867 256.125 3.536C257.149 3.152 258.098 2.8 258.973 2.48C259.847 2.13867 260.562 1.86133 261.117 1.648C261.671 1.43467 261.949 1.328 261.949 1.328C262.055 1.30667 262.162 1.296 262.269 1.296C262.375 1.27467 262.471 1.28533 262.557 1.328C262.855 1.37067 263.069 1.54133 263.197 1.84C263.303 2.01067 263.346 2.23467 263.325 2.512C263.325 2.768 263.271 3.14133 263.165 3.632C263.101 3.90933 263.015 4.21867 262.909 4.56C262.823 4.88 262.706 5.25333 262.557 5.68C262.535 5.76533 262.514 5.84 262.493 5.904C262.471 5.968 262.45 6.04267 262.429 6.128C263.282 5.65867 264.327 5.168 265.565 4.656C265.799 4.54933 266.034 4.54933 266.269 4.656C266.525 4.74133 266.695 4.90133 266.781 5.136C266.909 5.37067 266.919 5.616 266.813 5.872C266.706 6.128 266.535 6.30933 266.301 6.416C265.341 6.84267 264.477 7.248 263.709 7.632C262.962 8.016 262.365 8.32533 261.917 8.56C261.469 8.79467 261.245 8.912 261.245 8.912C261.117 9.01867 260.957 9.072 260.765 9.072ZM273.202 9.072C272.946 9.072 272.733 8.99733 272.562 8.848C272.221 8.57067 272.125 8.21867 272.274 7.792C272.274 7.77067 272.349 7.51467 272.498 7.024C272.669 6.53333 272.861 5.97867 273.074 5.36C273.181 4.99733 273.277 4.688 273.362 4.432C273.448 4.15467 273.522 3.90933 273.586 3.696C273.01 3.90933 272.306 4.176 271.474 4.496C270.642 4.79467 269.768 5.11467 268.85 5.456C267.954 5.79733 267.08 6.128 266.226 6.448C265.992 6.53333 265.757 6.52267 265.522 6.416C265.266 6.288 265.085 6.096 264.978 5.84C264.893 5.60533 264.914 5.37067 265.042 5.136C265.149 4.88 265.33 4.69867 265.586 4.592C266.546 4.25067 267.538 3.89867 268.562 3.536C269.586 3.152 270.536 2.8 271.41 2.48C272.285 2.13867 273 1.86133 273.554 1.648C274.109 1.43467 274.386 1.328 274.386 1.328C274.493 1.30667 274.6 1.296 274.706 1.296C274.813 1.27467 274.909 1.28533 274.994 1.328C275.293 1.37067 275.506 1.54133 275.634 1.84C275.741 2.01067 275.784 2.23467 275.762 2.512C275.762 2.768 275.709 3.14133 275.602 3.632C275.538 3.90933 275.453 4.21867 275.346 4.56C275.261 4.88 275.144 5.25333 274.994 5.68C274.973 5.76533 274.952 5.84 274.93 5.904C274.909 5.968 274.888 6.04267 274.866 6.128C275.72 5.65867 276.765 5.168 278.002 4.656C278.237 4.54933 278.472 4.54933 278.706 4.656C278.962 4.74133 279.133 4.90133 279.218 5.136C279.346 5.37067 279.357 5.616 279.25 5.872C279.144 6.128 278.973 6.30933 278.738 6.416C277.778 6.84267 276.914 7.248 276.146 7.632C275.4 8.016 274.802 8.32533 274.354 8.56C273.906 8.79467 273.682 8.912 273.682 8.912C273.554 9.01867 273.394 9.072 273.202 9.072ZM285.64 9.072C285.384 9.072 285.17 8.99733 285 8.848C284.658 8.57067 284.562 8.21867 284.712 7.792C284.712 7.77067 284.786 7.51467 284.936 7.024C285.106 6.53333 285.298 5.97867 285.512 5.36C285.618 4.99733 285.714 4.688 285.8 4.432C285.885 4.15467 285.96 3.90933 286.024 3.696C285.448 3.90933 284.744 4.176 283.912 4.496C283.08 4.79467 282.205 5.11467 281.288 5.456C280.392 5.79733 279.517 6.128 278.664 6.448C278.429 6.53333 278.194 6.52267 277.96 6.416C277.704 6.288 277.522 6.096 277.416 5.84C277.33 5.60533 277.352 5.37067 277.48 5.136C277.586 4.88 277.768 4.69867 278.024 4.592C278.984 4.25067 279.976 3.89867 281 3.536C282.024 3.152 282.973 2.8 283.848 2.48C284.722 2.13867 285.437 1.86133 285.992 1.648C286.546 1.43467 286.824 1.328 286.824 1.328C286.93 1.30667 287.037 1.296 287.144 1.296C287.25 1.27467 287.346 1.28533 287.432 1.328C287.73 1.37067 287.944 1.54133 288.072 1.84C288.178 2.01067 288.221 2.23467 288.2 2.512C288.2 2.768 288.146 3.14133 288.04 3.632C287.976 3.90933 287.89 4.21867 287.784 4.56C287.698 4.88 287.581 5.25333 287.432 5.68C287.41 5.76533 287.389 5.84 287.368 5.904C287.346 5.968 287.325 6.04267 287.304 6.128C288.157 5.65867 289.202 5.168 290.44 4.656C290.674 4.54933 290.909 4.54933 291.144 4.656C291.4 4.74133 291.57 4.90133 291.656 5.136C291.784 5.37067 291.794 5.616 291.688 5.872C291.581 6.128 291.41 6.30933 291.176 6.416C290.216 6.84267 289.352 7.248 288.584 7.632C287.837 8.016 287.24 8.32533 286.792 8.56C286.344 8.79467 286.12 8.912 286.12 8.912C285.992 9.01867 285.832 9.072 285.64 9.072ZM293.341 10.896C293.192 10.896 293.043 10.8747 292.893 10.832C292.744 10.8107 292.595 10.7893 292.445 10.768C292.061 10.6613 291.795 10.4373 291.645 10.096C291.453 9.66933 291.453 9.15733 291.645 8.56C291.859 7.94133 292.2 7.152 292.669 6.192C292.755 6.02133 292.84 5.82933 292.925 5.616C293.032 5.40267 293.128 5.2 293.213 5.008C292.936 5.11467 292.637 5.296 292.317 5.552C292.019 5.78667 291.709 6.032 291.389 6.288C291.176 6.43733 290.941 6.50133 290.685 6.48C290.408 6.43733 290.184 6.32 290.013 6.128C289.864 5.91467 289.811 5.68 289.853 5.424C289.875 5.168 289.981 4.944 290.173 4.752C290.472 4.53867 290.781 4.304 291.101 4.048C291.443 3.792 291.784 3.57867 292.125 3.408C293 2.96 293.8 2.84267 294.525 3.056C294.867 3.12 295.123 3.33333 295.293 3.696C295.464 4.03733 295.453 4.464 295.261 4.976C295.091 5.488 294.792 6.18133 294.365 7.056C294.259 7.312 294.141 7.568 294.013 7.824C293.907 8.08 293.8 8.32533 293.693 8.56C293.672 8.64533 293.64 8.72 293.597 8.784C293.576 8.848 293.555 8.912 293.533 8.976C293.981 8.912 294.632 8.688 295.485 8.304C296.36 7.89867 297.533 7.10933 299.005 5.936C299.795 5.31733 300.509 4.72 301.149 4.144C301.789 3.54667 302.301 3.056 302.685 2.672C303.069 2.288 303.261 2.096 303.261 2.096C303.517 1.79733 303.827 1.70133 304.189 1.808C304.36 1.82933 304.499 1.904 304.605 2.032C304.712 2.13867 304.797 2.24533 304.861 2.352C305.011 2.65067 305.021 3.00267 304.893 3.408C304.787 3.792 304.552 4.42133 304.189 5.296C304.061 5.57333 303.933 5.85067 303.805 6.128C303.699 6.40533 303.592 6.66133 303.485 6.896C303.464 6.98133 303.443 7.056 303.421 7.12C303.421 7.16267 303.411 7.20533 303.389 7.248C303.795 7.184 304.221 7.01333 304.669 6.736C305.139 6.43733 305.587 6.10667 306.013 5.744C306.461 5.38133 306.835 5.072 307.133 4.816C307.347 4.624 307.581 4.53867 307.837 4.56C308.093 4.58133 308.317 4.688 308.509 4.88C308.68 5.09333 308.755 5.328 308.733 5.584C308.733 5.84 308.627 6.064 308.413 6.256C307.752 6.832 307.069 7.376 306.365 7.888C305.683 8.4 304.989 8.784 304.285 9.04C303.603 9.27467 302.909 9.30667 302.205 9.136C301.864 8.98667 301.619 8.77333 301.469 8.496C301.341 8.19733 301.299 7.86667 301.341 7.504C301.405 7.14133 301.533 6.69333 301.725 6.16C301.491 6.37333 301.245 6.576 300.989 6.768C300.755 6.96 300.499 7.17333 300.221 7.408C297.277 9.73333 294.984 10.896 293.341 10.896Z" fill="url(#paint0_linear_2001_2420)"/>
<defs>
<linearGradient id="paint0_linear_2001_2420" x1="1" y1="0" x2="308" y2="0" gradientUnits="userSpaceOnUse">
<stop stop-color="#D2DDE1"/>
<stop offset="1" stop-color="#E2ECEF"/>
</linearGradient>
</defs>
</svg>
