                <svg
                  width="15"
                  height="15"
                  viewBox="0 0 15 15"
                  fill="none"
                  xmlns="http://www.w3.org/2000/svg"
                >
                  <path
                    d="M9.15123 14.5831C9.28079 14.5383 9.39459 14.457 9.47883 14.3488C9.56307 14.2407 9.61413 14.1105 9.62581 13.9739L10.2137 9.94347L13.8758 8.13722C13.9956 8.07922 14.0966 7.98866 14.1672 7.87591C14.2379 7.76316 14.2754 7.63278 14.2754 7.49972C14.2754 7.36665 14.2379 7.23628 14.1672 7.12353C14.0966 7.01078 13.9956 6.92022 13.8758 6.86222L10.2208 5.05597L9.62581 1.02555C9.60718 0.894456 9.55217 0.771207 9.46703 0.669792C9.3819 0.568378 9.27003 0.492858 9.14415 0.451803C9.02113 0.414222 8.8902 0.41085 8.7654 0.442047C8.64061 0.473245 8.52667 0.537835 8.43581 0.628886L5.60248 3.5543L1.57914 2.84597C1.44635 2.82068 1.30909 2.83392 1.18358 2.88413C1.05806 2.93433 0.949535 3.01941 0.870812 3.1293C0.794237 3.23641 0.749034 3.36275 0.740276 3.49413C0.731517 3.6255 0.75955 3.75672 0.821228 3.87305L2.71248 7.49972L0.814145 11.1122C0.758061 11.2116 0.728772 11.3239 0.729145 11.4381C0.728611 11.5881 0.775736 11.7344 0.863728 11.856C0.942451 11.9659 1.05098 12.0509 1.17649 12.1011C1.30201 12.1513 1.43926 12.1646 1.57206 12.1393L5.5954 11.431L8.42873 14.3564C8.51537 14.4587 8.62926 14.5342 8.75715 14.5744C8.88504 14.6145 9.02169 14.6175 9.15123 14.5831ZM6.3179 10.2268C6.23755 10.1437 6.13809 10.0816 6.02821 10.0458C5.91832 10.01 5.80134 10.0016 5.68748 10.0214L2.71956 10.5314L4.13623 7.86805C4.1908 7.76557 4.21934 7.65124 4.21934 7.53514C4.21934 7.41903 4.1908 7.3047 4.13623 7.20222L2.71956 4.53889L5.68748 5.04889C5.80134 5.06867 5.91832 5.0603 6.02821 5.02449C6.13809 4.98869 6.23755 4.92654 6.3179 4.84347L8.4429 2.71847L8.87498 5.70055C8.89094 5.8153 8.9348 5.92438 9.00273 6.01824C9.07065 6.11209 9.16055 6.18786 9.26456 6.23889L11.9633 7.49972L9.25748 8.83139C9.15347 8.88242 9.06356 8.95818 8.99564 9.05203C8.92772 9.14589 8.88386 9.25497 8.8679 9.36972L8.43581 12.3518L6.3179 10.2268Z"
                    fill="#19435C"
                  />
                </svg>